<svg width="20" height="20" viewBox="0 0 20 20" fill="none" xmlns="http://www.w3.org/2000/svg">
<path fill-rule="evenodd" clip-rule="evenodd" d="M18.3337 18.3337H15.0003V12.5012C15.0003 10.9012 14.2945 10.0087 13.0287 10.0087C11.6512 10.0087 10.8337 10.9387 10.8337 12.5012V18.3337H7.50033V7.50033H10.8337V8.71866C10.8337 8.71866 11.8795 6.88366 14.2362 6.88366C16.5937 6.88366 18.3337 8.32199 18.3337 11.2987V18.3337V18.3337ZM3.70199 5.76783C2.57783 5.76783 1.66699 4.84949 1.66699 3.71699C1.66699 2.58533 2.57783 1.66699 3.70199 1.66699C4.82533 1.66699 5.73616 2.58533 5.73616 3.71699C5.73699 4.84949 4.82533 5.76783 3.70199 5.76783V5.76783ZM1.66699 18.3337H5.83366V7.50033H1.66699V18.3337Z" fill="white"/>
</svg>
